<svg xmlns="http://www.w3.org/2000/svg" xmlns:xlink="http://www.w3.org/1999/xlink" viewBox="0,0,255.987,255.987" width="48px" height="48px" fill-rule="nonzero"><g fill="none" fill-rule="nonzero" stroke="none" stroke-width="1" stroke-linecap="butt" stroke-linejoin="miter" stroke-miterlimit="10" stroke-dasharray="" stroke-dashoffset="0" font-family="none" font-weight="none" font-size="none" text-anchor="none" style="mix-blend-mode: normal"><g transform="scale(5.33333,5.33333)"><path d="M24,34.001c-2.20914,0 -4,1.79086 -4,4c0,2.20914 1.79086,4 4,4c2.20914,0 4,-1.79086 4,-4c0,-2.20914 -1.79086,-4 -4,-4zM26,11c0,1.104 -0.896,2 -2,2v0c-1.104,0 -2,-0.896 -2,-2v-4c0,-1.104 0.896,-2 2,-2v0c1.104,0 2,0.896 2,2z" fill="#889495"></path><path d="M27.887,38.91c0.068,-0.293 0.113,-0.596 0.113,-0.909c0,-0.383 -0.07,-0.746 -0.172,-1.097c-1.219,0.061 -2.495,0.096 -3.828,0.096c-1.333,0 -2.609,-0.035 -3.829,-0.096c-0.1,0.351 -0.171,0.714 -0.171,1.097c0,0.313 0.045,0.616 0.113,0.909c1.471,0.069 2.813,0.09 3.887,0.09c1.074,0 2.416,-0.021 3.887,-0.09z" fill="#a8b1b3"></path><path d="M33,33v-16.199c0,-4.97 -4.029,-9 -9,-9c-4.971,0 -9,4.03 -9,9v16.199z" fill="#959e9d"></path><path d="M41,33c0,2.209 -7.059,4 -17,4c-9.941,0 -17,-1.791 -17,-4c0,-2.209 7.059,-4 17,-4c9.941,0 17,1.791 17,4z" fill="#959e9d"></path><path d="M7,33c0,-1.999 8,-9.001 8,-12c0,-2.999 18,-3.001 18,0c0,3.001 8,9.999 8,12c0,2.001 -34,1.999 -34,0z" fill="#959e9d"></path><path d="M9.275,29.424c-0.491,0.593 -0.929,1.146 -1.295,1.65c1.622,0.655 8.15,3.062 16.562,3.062c4.746,0 10.089,-0.78 15.476,-3.064c-0.362,-0.499 -0.796,-1.046 -1.281,-1.632c-13.038,5.284 -26.039,1.24 -29.462,-0.016z" fill="#606e6f"></path></g></g></svg>