<svg xmlns="http://www.w3.org/2000/svg" xmlns:xlink="http://www.w3.org/1999/xlink" viewBox="0,0,255.987,255.987" width="240px" height="240px" fill-rule="nonzero"><g fill="none" fill-rule="nonzero" stroke="none" stroke-width="1" stroke-linecap="butt" stroke-linejoin="miter" stroke-miterlimit="10" stroke-dasharray="" stroke-dashoffset="0" font-family="none" font-weight="none" font-size="none" text-anchor="none" style="mix-blend-mode: normal"><g transform="scale(5.33333,5.33333)"><circle cx="24" cy="24" r="20" fill="#c3137e"></circle><path d="M35.066,22.035v-0.959h-1.821l-0.8,-0.014c-0.684,0 -1.151,0.45 -1.335,0.974v-0.959h-2.039v6.223h2.039v-1.334v-2.066c0,-0.62 0.503,-1.123 1.123,-1.123h0.795v4.523h2.039v-1.334v-2.066c0,-0.62 0.503,-1.123 1.123,-1.123h1.012v-1.7l-0.8,-0.014c-0.684,-0.002 -1.152,0.449 -1.336,0.972zM20.56,21.206l-1.094,3.597l-1.093,-3.597h-2.039l2.215,6.223h0.12h1.597h0.12l2.213,-6.223zM12.23,21.206v-0.415c0,-0.364 0.294,-0.658 0.658,-0.658h1.287v-1.706h-1.767c-1.223,0 -2.216,0.991 -2.216,2.216v0.564h-1.192v1.649h1.192v4.572h2.039v-4.572h1.944v4.572h2.039v-4.572v-1.649h-2.039h-1.945zM25.424,21.122h-0.248c-1.67,0 -3.024,1.354 -3.024,3.024v0.342c0,1.67 1.354,3.024 3.024,3.024h0.552c1.143,0 2.122,-0.706 2.524,-1.705l-1.798,-0.525c0,0 -0.215,0.616 -0.965,0.616c-0.847,0 -1.295,-0.463 -1.354,-0.989v0v-0.003c-0.004,-0.038 -0.006,-0.077 -0.006,-0.115h2.3h2.022v-0.643c-0.003,-1.672 -1.357,-3.026 -3.027,-3.026zM24.13,23.59c0.025,-0.559 0.485,-1.006 1.051,-1.006h0.194c0.565,0 1.026,0.446 1.051,1.006z" fill="#5c7cfa"></path><circle cx="38.852" cy="26.305" r="1.268" fill="#fcc419"></circle></g></g></svg>